<?xml version="1.0" standalone="no"?>
<!DOCTYPE svg PUBLIC "-//W3C//DTD SVG 20010904//EN"
 "http://www.w3.org/TR/2001/REC-SVG-20010904/DTD/svg10.dtd">
<svg version="1.0" xmlns="http://www.w3.org/2000/svg"
 width="148.000000pt" height="142.000000pt" viewBox="0 0 148.000000 142.000000"
 preserveAspectRatio="xMidYMid meet">

<g transform="translate(0.000000,142.000000) scale(0.100000,-0.100000)"
fill="#000000" stroke="none">
<path d="M0 710 l0 -710 740 0 740 0 0 710 0 710 -740 0 -740 0 0 -710z m920
634 c391 -123 575 -573 383 -937 -46 -87 -164 -210 -245 -256 -202 -114 -426
-120 -631 -19 -65 32 -100 59 -167 127 -136 136 -190 269 -190 464 0 122 11
168 67 286 37 77 59 108 122 170 179 178 424 240 661 165z"/>
<path d="M645 1290 c-228 -31 -422 -203 -480 -427 -8 -31 -15 -96 -15 -143 0
-167 52 -292 170 -410 181 -181 437 -220 672 -103 182 91 308 299 308 506 0
87 -24 186 -62 265 -42 86 -159 205 -244 250 -103 54 -235 77 -349 62z m425
-252 c0 -41 -18 -76 -50 -99 -19 -14 -605 -179 -634 -179 -4 0 -6 18 -6 40 0
29 7 48 28 71 25 29 52 38 332 114 168 46 311 83 318 84 7 1 12 -12 12 -31z
m-3 -214 c-9 -80 -17 -84 -351 -174 -165 -44 -308 -82 -318 -86 -16 -5 -18 1
-18 41 0 78 23 93 235 149 99 26 234 63 300 81 163 45 159 45 152 -11z m3
-179 c0 -42 -22 -90 -48 -104 -19 -10 -612 -171 -631 -171 -6 0 -11 17 -11 40
0 29 7 47 28 70 24 27 57 38 337 114 171 46 313 84 318 85 4 0 7 -15 7 -34z"/>
</g>
</svg>
